# Blender 3.3.1
# www.blender.org
mtllib WorkbenchLevel10.mtl
o WorkbenchLevel1
v -1.000000 4.000000 -2.203636
v -1.000000 4.000000 2.596364
v -5.000000 4.326543 -2.203636
v -4.826543 4.500000 -2.203636
v -4.826543 4.500000 2.596364
v -5.000000 4.326543 2.596364
v -3.000000 2.900000 2.596364
v -3.000000 2.000000 2.596364
v -4.800000 2.900000 2.596364
v -4.800000 3.800000 2.596364
v -4.800000 2.000000 2.596364
v -1.200000 2.900000 2.596364
v -1.200000 3.800000 2.596364
v -1.200000 2.000000 2.596364
v -4.800000 1.100000 2.596364
v -1.200000 1.100000 2.596364
v -1.000000 0.600000 2.596364
v -5.000000 0.600000 -2.203636
v -4.800000 0.600000 2.596364
v -1.200000 0.600000 2.596364
v -1.000000 0.600000 -2.203636
v -5.000000 0.600000 2.596364
v -1.500000 0.600000 -2.123636
v -1.500000 0.200000 -2.123636
v -4.500000 0.200000 -2.123636
v -4.500000 0.600000 -2.123636
v -4.358579 0.200000 -2.076774
v -4.358579 0.600000 -2.076774
v -4.300000 0.200000 -1.963637
v -4.300000 0.600000 -1.963637
v -4.358579 0.200000 -1.850500
v -4.358579 0.600000 -1.850500
v -4.500000 0.200000 -1.803636
v -4.500000 0.600000 -1.803636
v -4.641421 0.200000 -1.850500
v -4.641421 0.600000 -1.850500
v -4.700000 0.200000 -1.963637
v -4.700000 0.600000 -1.963637
v -4.641421 0.200000 -2.076774
v -4.641421 0.600000 -2.076774
v -1.358579 0.200000 -2.076774
v -1.358579 0.600000 -2.076774
v -1.300000 0.200000 -1.963637
v -1.300000 0.600000 -1.963637
v -1.358579 0.200000 -1.850500
v -1.358579 0.600000 -1.850500
v -1.500000 0.200000 -1.803636
v -1.500000 0.600000 -1.803636
v -1.641421 0.200000 -1.850500
v -1.641421 0.600000 -1.850500
v -1.700000 0.200000 -1.963637
v -1.700000 0.600000 -1.963637
v -1.641421 0.200000 -2.076774
v -1.641421 0.600000 -2.076774
v -1.500000 0.600000 2.196364
v -1.500000 0.200000 2.196364
v -4.641421 0.200000 2.243227
v -4.700000 0.600000 2.356364
v -4.700000 0.200000 2.356364
v -4.641421 0.600000 2.469501
v -4.641421 0.200000 2.469501
v -4.500000 0.600000 2.516364
v -4.500000 0.200000 2.516364
v -4.358579 0.600000 2.469501
v -4.358579 0.200000 2.469501
v -4.300000 0.600000 2.356364
v -4.300000 0.200000 2.356364
v -4.358579 0.600000 2.243227
v -4.358579 0.200000 2.243227
v -4.500000 0.200000 2.196364
v -4.500000 0.600000 2.196364
v -1.358579 0.200000 2.243227
v -1.358579 0.600000 2.243227
v -1.300000 0.200000 2.356364
v -1.300000 0.600000 2.356364
v -1.358579 0.200000 2.469501
v -1.358579 0.600000 2.469501
v -1.500000 0.200000 2.516364
v -1.500000 0.600000 2.516364
v -1.641421 0.200000 2.469501
v -1.641421 0.600000 2.469501
v -1.700000 0.200000 2.356364
v -1.700000 0.600000 2.356364
v -1.641421 0.200000 2.243227
v -1.641421 0.600000 2.243227
v 4.550898 4.500000 -2.203636
v 4.776745 4.274153 -2.203636
v 4.710596 4.433851 -2.203636
v 4.776745 4.274153 2.596364
v 4.550898 4.500000 2.596364
v 4.710596 4.433851 2.596364
v 4.776745 4.225847 -2.203636
v 4.550898 4.000000 -2.203636
v 4.710596 4.066149 -2.203636
v 4.550898 4.000000 2.596364
v 4.776745 4.225847 2.596364
v 4.710596 4.066149 2.596364
v 4.050000 0.050000 -1.803636
v 4.050000 4.000000 -1.803636
v 4.050000 0.050000 -2.123636
v 4.050000 4.000000 -2.123636
v 4.450000 0.050000 -1.803636
v 4.450000 4.000000 -1.803636
v 4.450000 0.050000 -2.123636
v 4.450000 4.000000 -2.123636
v 4.000000 0.050000 -1.803636
v 4.000000 0.050000 -2.123636
v 4.500000 0.050000 -1.803636
v 4.500000 0.050000 -2.123636
v 4.000000 0.000000 -1.803636
v 4.000000 0.000000 -2.123636
v 4.500000 0.000000 -1.803636
v 4.500000 0.000000 -2.123636
v 4.050000 0.050000 2.516364
v 4.050000 4.000000 2.516364
v 4.050000 0.050000 2.196364
v 4.050000 4.000000 2.196364
v 4.450000 0.050000 2.516364
v 4.450000 4.000000 2.516364
v 4.450000 0.050000 2.196364
v 4.450000 4.000000 2.196364
v 4.000000 0.050000 2.516364
v 4.000000 0.050000 2.196364
v 4.500000 0.050000 2.516364
v 4.500000 0.050000 2.196364
v 4.000000 0.000000 2.516364
v 4.000000 0.000000 2.196364
v 4.500000 0.000000 2.516364
v 4.500000 0.000000 2.196364
v -5.000000 3.000000 2.596364
v -3.000000 3.000000 2.596364
v -4.800000 3.000000 2.596364
v -1.200000 3.000000 2.596364
v -3.000000 2.100000 2.596364
v -4.800000 2.100000 2.596364
v -1.200000 2.100000 2.596364
v -1.000000 1.200000 2.596364
v -4.800000 1.200000 2.596364
v -1.200000 1.200000 2.596364
v -4.800000 2.900000 2.516364
v -4.800000 3.800000 2.516364
v -4.800000 2.000000 2.516364
v -1.200000 2.900000 2.516364
v -1.200000 3.800000 2.516364
v -1.200000 2.000000 2.516364
v -4.800000 3.000000 2.516364
v -1.200000 3.000000 2.516364
v -4.800000 2.100000 2.516364
v -1.200000 2.100000 2.516364
v -4.800000 1.200000 2.516364
v -1.200000 1.200000 2.516364
v -3.450000 3.230000 2.644364
v -3.450000 3.530000 2.644364
v -3.450000 3.230000 2.548364
v -3.450000 3.530000 2.548364
v -2.549999 3.230000 2.644364
v -2.549999 3.530000 2.644364
v -2.549999 3.230000 2.548364
v -2.549999 3.530000 2.548364
v -3.450000 2.360000 2.644364
v -3.450000 2.660000 2.644364
v -3.450000 2.360000 2.548364
v -3.450000 2.660000 2.548364
v -2.549999 2.360000 2.644364
v -2.549999 2.660000 2.644364
v -2.549999 2.360000 2.548364
v -2.549999 2.660000 2.548364
v -3.450000 1.460000 2.644364
v -3.450000 1.760000 2.644364
v -3.450000 1.460000 2.548364
v -3.450000 1.760000 2.548364
v -2.549999 1.460000 2.644364
v -2.549999 1.760000 2.644364
v -2.549999 1.460000 2.548364
v -2.549999 1.760000 2.548364
v -4.641421 0.600000 2.243227
vn -0.0000 -0.0000 1.0000
vn -0.0000 1.0000 -0.0000
vn 1.0000 -0.0000 -0.0000
vn 0.3827 0.9239 -0.0000
vn -0.0000 -0.0000 -1.0000
vn 0.3146 -0.0000 0.9492
vn 0.3145 -0.0000 -0.9492
vn -0.3146 -0.0000 0.9492
vn -0.8880 -0.0000 0.4598
vn 0.8880 -0.0000 -0.4598
vn 0.8880 -0.0000 0.4598
vn -0.0000 -1.0000 -0.0000
vn -0.3145 -0.0000 -0.9492
vn -0.8880 -0.0000 -0.4598
vn 0.3145 -0.0000 0.9492
vn 0.3146 -0.0000 -0.9492
vn -0.3145 -0.0000 0.9492
vn -0.3146 -0.0000 -0.9492
vn -0.7071 0.7071 -0.0000
vn 0.9239 -0.3827 -0.0000
vn -1.0000 -0.0000 -0.0000
vn 0.9239 0.3827 -0.0000
vn 0.3827 -0.9239 -0.0000
vt 0.006761 0.993731
vt 0.006761 0.993731
vt 0.006761 0.993731
vt 0.006761 0.993731
vt 0.006761 0.993731
vt 0.006761 0.993731
vt 0.006761 0.993731
vt 0.006761 0.993731
vt 0.006761 0.993731
vt 0.006761 0.993731
vt 0.006761 0.993731
vt 0.006761 0.993731
vt 0.006761 0.993731
vt 0.006761 0.993731
vt 0.006761 0.993731
vt 0.006761 0.993731
vt 0.006761 0.993731
vt 0.006761 0.993731
vt 0.006761 0.993731
vt 0.006761 0.993731
vt 0.006761 0.993731
vt 0.006761 0.993731
vt 0.006098 0.974826
vt 0.006098 0.974826
vt 0.006098 0.974826
vt 0.006098 0.974826
vt 0.006098 0.974826
vt 0.006098 0.974826
vt 0.006098 0.974826
vt 0.006098 0.974826
vt 0.006098 0.974826
vt 0.006098 0.974826
vt 0.006098 0.974826
vt 0.006098 0.974826
vt 0.006098 0.974826
vt 0.006098 0.974826
vt 0.006098 0.974826
vt 0.006098 0.974826
vt 0.006098 0.974826
vt 0.006098 0.974826
vt 0.006098 0.974826
vt 0.006098 0.974826
vt 0.006098 0.974826
vt 0.006098 0.974826
vt 0.006098 0.974826
vt 0.006098 0.974826
vt 0.006098 0.974826
vt 0.006098 0.974826
vt 0.006098 0.974826
vt 0.006098 0.974826
vt 0.006098 0.974826
vt 0.006098 0.974826
vt 0.006098 0.974826
vt 0.006098 0.974826
vt 0.006098 0.974826
vt 0.006098 0.974826
vt 0.006098 0.974826
vt 0.006098 0.974826
vt 0.006098 0.974826
vt 0.006098 0.974826
vt 0.006098 0.974826
vt 0.006098 0.974826
vt 0.006098 0.974826
vt 0.006098 0.974826
vt 0.006098 0.974826
vt 0.006098 0.974826
vt 0.006098 0.974826
vt 0.006098 0.974826
vt 0.006098 0.974826
vt 0.006098 0.974826
vt 0.006098 0.974826
vt 0.006098 0.974826
vt 0.006098 0.974826
vt 0.006098 0.974826
vt 0.006098 0.974826
vt 0.006098 0.974826
vt 0.006098 0.974826
vt 0.006098 0.974826
vt 0.006098 0.974826
vt 0.006098 0.974826
vt 0.006098 0.974826
vt 0.006098 0.974826
vt 0.006098 0.974826
vt 0.006098 0.974826
vt 0.006098 0.974826
vt 0.006761 0.993731
vt 0.006761 0.993731
vt 0.006761 0.993731
vt 0.006761 0.993731
vt 0.006761 0.993731
vt 0.006761 0.993731
vt 0.006761 0.993731
vt 0.006761 0.993731
vt 0.006761 0.993731
vt 0.006761 0.993731
vt 0.006761 0.993731
vt 0.006761 0.993731
vt 0.006098 0.974826
vt 0.006098 0.974826
vt 0.006098 0.974826
vt 0.006098 0.974826
vt 0.006098 0.974826
vt 0.006098 0.974826
vt 0.006098 0.974826
vt 0.006098 0.974826
vt 0.006098 0.974826
vt 0.006098 0.974826
vt 0.006098 0.974826
vt 0.006098 0.974826
vt 0.006098 0.974826
vt 0.006098 0.974826
vt 0.006098 0.974826
vt 0.006098 0.974826
vt 0.006098 0.974826
vt 0.006098 0.974826
vt 0.006098 0.974826
vt 0.006098 0.974826
vt 0.006098 0.974826
vt 0.006098 0.974826
vt 0.006098 0.974826
vt 0.006098 0.974826
vt 0.006098 0.974826
vt 0.006098 0.974826
vt 0.006098 0.974826
vt 0.006098 0.974826
vt 0.006098 0.974826
vt 0.006098 0.974826
vt 0.006098 0.974826
vt 0.006098 0.974826
vt 0.006761 0.993731
vt 0.006761 0.993731
vt 0.006761 0.993731
vt 0.006761 0.993731
vt 0.006761 0.993731
vt 0.006761 0.993731
vt 0.006761 0.993731
vt 0.006761 0.993731
vt 0.006761 0.993731
vt 0.006761 0.993731
vt 0.006761 0.993731
vt 0.006761 0.993731
vt 0.006761 0.993731
vt 0.006761 0.993731
vt 0.006761 0.993731
vt 0.006761 0.993731
vt 0.006761 0.993731
vt 0.006761 0.993731
vt 0.006761 0.993731
vt 0.006761 0.993731
vt 0.006761 0.993731
vt 0.006761 0.993731
vt 0.027909 0.992294
vt 0.027909 0.992294
vt 0.027909 0.992294
vt 0.027909 0.992294
vt 0.027909 0.992294
vt 0.027909 0.992294
vt 0.027909 0.992294
vt 0.027909 0.992294
vt 0.031519 0.993547
vt 0.031519 0.993547
vt 0.031519 0.993547
vt 0.031519 0.993547
vt 0.031519 0.993547
vt 0.031519 0.993547
vt 0.031519 0.993547
vt 0.031519 0.993547
vt 0.031519 0.993547
vt 0.031519 0.993547
vt 0.031519 0.993547
vt 0.031519 0.993547
vt 0.031519 0.993547
vt 0.031519 0.993547
vt 0.031519 0.993547
vt 0.031519 0.993547
vt 0.006098 0.974826
s 0
usemtl Material
f 141/141/1 147/147/1 144/144/1
f 5/5/2 86/86/2 4/4/2
f 136/136/2 148/148/2 135/135/2
f 87/87/3 96/96/3 92/92/3
f 139/139/2 150/150/2 138/138/2
f 2/2/1 90/90/1 6/6/1
f 90/90/4 88/88/4 86/86/4
f 135/135/3 140/140/3 9/9/3
f 4/4/5 92/92/5 1/1/5
f 64/64/6 63/63/6 65/65/6
f 52/52/2 48/48/2 44/44/2
f 26/26/7 27/27/7 25/25/7
f 79/79/8 80/80/8 78/78/8
f 50/50/9 51/51/9 49/49/9
f 28/28/10 29/29/10 27/27/10
f 66/66/11 65/65/11 67/67/11
f 48/48/8 49/49/8 47/47/8
f 30/30/11 31/31/11 29/29/11
f 83/83/2 79/79/2 75/75/2
f 46/46/6 47/47/6 45/45/6
f 32/32/6 33/33/6 31/31/6
f 45/45/12 49/49/12 53/53/12
f 44/44/11 45/45/11 43/43/11
f 34/34/8 35/35/8 33/33/8
f 54/54/13 24/24/13 53/53/13
f 42/42/10 43/43/10 41/41/10
f 36/36/9 37/37/9 35/35/9
f 38/38/2 34/34/2 30/30/2
f 23/23/7 41/41/7 24/24/7
f 38/38/14 39/39/14 37/37/14
f 81/81/9 82/82/9 80/80/9
f 52/52/14 53/53/14 51/51/14
f 40/40/13 25/25/13 39/39/13
f 31/31/12 35/35/12 39/39/12
f 60/60/9 59/59/9 61/61/9
f 77/77/15 78/78/15 76/76/15
f 58/58/2 62/62/2 66/66/2
f 76/76/12 80/80/12 84/84/12
f 75/75/11 76/76/11 74/74/11
f 85/85/13 56/56/13 84/84/13
f 73/73/10 74/74/10 72/72/10
f 55/55/16 72/72/16 56/56/16
f 62/62/17 61/61/17 63/63/17
f 83/83/14 84/84/14 82/82/14
f 65/65/12 61/61/12 57/57/12
f 176/176/18 70/70/18 57/57/18
f 4/4/19 6/6/19 5/5/19
f 22/22/1 135/135/1 9/9/1
f 94/94/20 96/96/20 97/97/20
f 99/99/21 100/100/21 98/98/21
f 101/101/5 104/104/5 100/100/5
f 105/105/3 102/102/3 104/104/3
f 103/103/1 98/98/1 102/102/1
f 101/101/2 103/103/2 105/105/2
f 102/102/2 109/109/2 104/104/2
f 100/100/2 106/106/2 98/98/2
f 100/100/2 109/109/2 107/107/2
f 102/102/2 106/106/2 108/108/2
f 109/109/5 111/111/5 107/107/5
f 113/113/12 110/110/12 111/111/12
f 107/107/21 110/110/21 106/106/21
f 108/108/3 113/113/3 109/109/3
f 106/106/1 112/112/1 108/108/1
f 115/115/21 116/116/21 114/114/21
f 117/117/5 120/120/5 116/116/5
f 121/121/3 118/118/3 120/120/3
f 119/119/1 114/114/1 118/118/1
f 117/117/2 119/119/2 121/121/2
f 118/118/2 125/125/2 120/120/2
f 116/116/2 122/122/2 114/114/2
f 116/116/2 125/125/2 123/123/2
f 118/118/2 122/122/2 124/124/2
f 125/125/5 127/127/5 123/123/5
f 129/129/12 126/126/12 127/127/12
f 123/123/21 126/126/21 122/122/21
f 124/124/3 129/129/3 125/125/3
f 122/122/1 128/128/1 124/124/1
f 91/91/22 87/87/22 88/88/22
f 93/93/12 2/2/12 1/1/12
f 93/93/23 97/97/23 95/95/23
f 150/150/1 145/145/1 142/142/1
f 7/7/12 140/140/12 143/143/12
f 13/13/21 147/147/21 133/133/21
f 137/137/3 21/21/3 1/1/3
f 132/132/3 141/141/3 10/10/3
f 11/11/12 145/145/12 14/14/12
f 133/133/2 146/146/2 132/132/2
f 12/12/21 149/149/21 136/136/21
f 141/141/12 13/13/12 10/10/12
f 140/140/1 149/149/1 143/143/1
f 138/138/3 142/142/3 11/11/3
f 14/14/21 151/151/21 139/139/21
f 153/153/21 154/154/21 152/152/21
f 155/155/5 158/158/5 154/154/5
f 159/159/3 156/156/3 158/158/3
f 157/157/1 152/152/1 156/156/1
f 158/158/12 152/152/12 154/154/12
f 155/155/2 157/157/2 159/159/2
f 161/161/21 162/162/21 160/160/21
f 163/163/5 166/166/5 162/162/5
f 167/167/3 164/164/3 166/166/3
f 165/165/1 160/160/1 164/164/1
f 166/166/12 160/160/12 162/162/12
f 163/163/2 165/165/2 167/167/2
f 169/169/21 170/170/21 168/168/21
f 171/171/5 174/174/5 170/170/5
f 175/175/3 172/172/3 174/174/3
f 173/173/1 168/168/1 172/172/1
f 174/174/12 168/168/12 170/170/12
f 171/171/2 173/173/2 175/175/2
f 18/18/21 130/130/21 6/6/21
f 68/68/10 67/67/10 69/69/10
f 71/71/7 69/69/7 70/70/7
f 58/58/14 57/57/14 59/59/14
f 15/15/1 20/20/1 16/16/1
f 19/19/12 18/18/12 17/17/12
f 141/141/1 146/146/1 147/147/1
f 5/5/2 90/90/2 86/86/2
f 135/135/12 134/134/12 136/136/12
f 136/136/2 149/149/2 148/148/2
f 87/87/3 89/89/3 96/96/3
f 139/139/2 151/151/2 150/150/2
f 136/136/1 134/134/1 8/8/1
f 14/14/1 139/139/1 137/137/1
f 136/136/1 8/8/1 14/14/1
f 131/131/1 7/7/1 12/12/1
f 136/136/1 14/14/1 137/137/1
f 133/133/1 131/131/1 12/12/1
f 12/12/1 136/136/1 137/137/1
f 2/2/1 95/95/1 97/97/1
f 12/12/1 137/137/1 2/2/1
f 13/13/5 133/133/5 12/12/5
f 2/2/1 97/97/1 96/96/1
f 13/13/1 12/12/1 2/2/1
f 130/130/1 132/132/1 10/10/1
f 10/10/1 13/13/1 2/2/1
f 2/2/1 96/96/1 89/89/1
f 89/89/1 91/91/1 90/90/1
f 90/90/1 5/5/1 6/6/1
f 6/6/1 130/130/1 10/10/1
f 2/2/1 89/89/1 90/90/1
f 6/6/1 10/10/1 2/2/1
f 90/90/4 91/91/4 88/88/4
f 135/135/3 148/148/3 140/140/3
f 1/1/5 21/21/5 18/18/5
f 18/18/5 3/3/5 4/4/5
f 4/4/5 86/86/5 88/88/5
f 88/88/5 87/87/5 92/92/5
f 92/92/5 94/94/5 93/93/5
f 1/1/5 18/18/5 4/4/5
f 92/92/5 93/93/5 1/1/5
f 4/4/5 88/88/5 92/92/5
f 64/64/15 62/62/15 63/63/15
f 44/44/2 42/42/2 23/23/2
f 23/23/2 54/54/2 52/52/2
f 52/52/2 50/50/2 48/48/2
f 48/48/2 46/46/2 44/44/2
f 44/44/2 23/23/2 52/52/2
f 26/26/7 28/28/7 27/27/7
f 79/79/17 81/81/17 80/80/17
f 50/50/9 52/52/9 51/51/9
f 28/28/10 30/30/10 29/29/10
f 66/66/11 64/64/11 65/65/11
f 48/48/8 50/50/8 49/49/8
f 30/30/11 32/32/11 31/31/11
f 75/75/2 73/73/2 55/55/2
f 55/55/2 85/85/2 83/83/2
f 83/83/2 81/81/2 79/79/2
f 79/79/2 77/77/2 75/75/2
f 75/75/2 55/55/2 83/83/2
f 46/46/6 48/48/6 47/47/6
f 32/32/6 34/34/6 33/33/6
f 53/53/12 24/24/12 41/41/12
f 41/41/12 43/43/12 45/45/12
f 45/45/12 47/47/12 49/49/12
f 49/49/12 51/51/12 53/53/12
f 53/53/12 41/41/12 45/45/12
f 44/44/11 46/46/11 45/45/11
f 34/34/8 36/36/8 35/35/8
f 54/54/13 23/23/13 24/24/13
f 42/42/10 44/44/10 43/43/10
f 36/36/9 38/38/9 37/37/9
f 30/30/2 28/28/2 26/26/2
f 26/26/2 40/40/2 38/38/2
f 38/38/2 36/36/2 34/34/2
f 34/34/2 32/32/2 30/30/2
f 30/30/2 26/26/2 38/38/2
f 23/23/7 42/42/7 41/41/7
f 38/38/14 40/40/14 39/39/14
f 81/81/9 83/83/9 82/82/9
f 52/52/14 54/54/14 53/53/14
f 40/40/13 26/26/13 25/25/13
f 39/39/12 25/25/12 27/27/12
f 27/27/12 29/29/12 31/31/12
f 31/31/12 33/33/12 35/35/12
f 35/35/12 37/37/12 39/39/12
f 39/39/12 27/27/12 31/31/12
f 60/60/9 58/58/9 59/59/9
f 77/77/6 79/79/6 78/78/6
f 66/66/2 68/68/2 71/71/2
f 71/71/2 176/176/2 58/58/2
f 58/58/2 60/60/2 62/62/2
f 62/62/2 64/64/2 66/66/2
f 66/66/2 71/71/2 58/58/2
f 84/84/12 56/56/12 72/72/12
f 72/72/12 74/74/12 76/76/12
f 76/76/12 78/78/12 80/80/12
f 80/80/12 82/82/12 84/84/12
f 84/84/12 72/72/12 76/76/12
f 75/75/11 77/77/11 76/76/11
f 85/85/18 55/55/18 56/56/18
f 73/73/10 75/75/10 74/74/10
f 55/55/7 73/73/7 72/72/7
f 62/62/8 60/60/8 61/61/8
f 83/83/14 85/85/14 84/84/14
f 57/57/12 70/70/12 69/69/12
f 69/69/12 67/67/12 65/65/12
f 65/65/12 63/63/12 61/61/12
f 61/61/12 59/59/12 57/57/12
f 57/57/12 69/69/12 65/65/12
f 176/176/13 71/71/13 70/70/13
f 4/4/19 3/3/19 6/6/19
f 132/132/1 130/130/1 22/22/1
f 22/22/1 19/19/1 15/15/1
f 16/16/1 20/20/1 17/17/1
f 16/16/1 17/17/1 137/137/1
f 137/137/2 139/139/2 138/138/2
f 15/15/1 16/16/1 137/137/1
f 7/7/1 131/131/1 132/132/1
f 9/9/1 7/7/1 132/132/1
f 15/15/1 137/137/1 138/138/1
f 11/11/1 8/8/1 134/134/1
f 22/22/1 15/15/1 138/138/1
f 11/11/1 134/134/1 135/135/1
f 22/22/1 138/138/1 11/11/1
f 9/9/1 132/132/1 22/22/1
f 22/22/1 11/11/1 135/135/1
f 94/94/20 92/92/20 96/96/20
f 99/99/21 101/101/21 100/100/21
f 101/101/5 105/105/5 104/104/5
f 105/105/3 103/103/3 102/102/3
f 103/103/1 99/99/1 98/98/1
f 101/101/2 99/99/2 103/103/2
f 102/102/2 108/108/2 109/109/2
f 100/100/2 107/107/2 106/106/2
f 100/100/2 104/104/2 109/109/2
f 102/102/12 98/98/12 106/106/12
f 109/109/5 113/113/5 111/111/5
f 113/113/12 112/112/12 110/110/12
f 107/107/21 111/111/21 110/110/21
f 108/108/3 112/112/3 113/113/3
f 106/106/1 110/110/1 112/112/1
f 115/115/21 117/117/21 116/116/21
f 117/117/5 121/121/5 120/120/5
f 121/121/3 119/119/3 118/118/3
f 119/119/1 115/115/1 114/114/1
f 117/117/2 115/115/2 119/119/2
f 118/118/2 124/124/2 125/125/2
f 116/116/2 123/123/2 122/122/2
f 116/116/2 120/120/2 125/125/2
f 118/118/2 114/114/2 122/122/2
f 125/125/5 129/129/5 127/127/5
f 129/129/12 128/128/12 126/126/12
f 123/123/21 127/127/21 126/126/21
f 124/124/3 128/128/3 129/129/3
f 122/122/1 126/126/1 128/128/1
f 91/91/22 89/89/22 87/87/22
f 93/93/12 95/95/12 2/2/12
f 93/93/23 94/94/23 97/97/23
f 150/150/1 151/151/1 145/145/1
f 143/143/12 12/12/12 7/7/12
f 7/7/12 9/9/12 140/140/12
f 13/13/21 144/144/21 147/147/21
f 1/1/3 2/2/3 137/137/3
f 137/137/3 17/17/3 21/21/3
f 132/132/3 146/146/3 141/141/3
f 14/14/2 8/8/2 11/11/2
f 11/11/12 142/142/12 145/145/12
f 132/132/12 131/131/12 133/133/12
f 133/133/2 147/147/2 146/146/2
f 12/12/21 143/143/21 149/149/21
f 141/141/12 144/144/12 13/13/12
f 140/140/1 148/148/1 149/149/1
f 138/138/3 150/150/3 142/142/3
f 14/14/21 145/145/21 151/151/21
f 153/153/21 155/155/21 154/154/21
f 155/155/5 159/159/5 158/158/5
f 159/159/3 157/157/3 156/156/3
f 157/157/1 153/153/1 152/152/1
f 158/158/12 156/156/12 152/152/12
f 155/155/2 153/153/2 157/157/2
f 161/161/21 163/163/21 162/162/21
f 163/163/5 167/167/5 166/166/5
f 167/167/3 165/165/3 164/164/3
f 165/165/1 161/161/1 160/160/1
f 166/166/12 164/164/12 160/160/12
f 163/163/2 161/161/2 165/165/2
f 169/169/21 171/171/21 170/170/21
f 171/171/5 175/175/5 174/174/5
f 175/175/3 173/173/3 172/172/3
f 173/173/1 169/169/1 168/168/1
f 174/174/12 172/172/12 168/168/12
f 171/171/2 169/169/2 173/173/2
f 6/6/21 3/3/21 18/18/21
f 18/18/21 22/22/21 130/130/21
f 68/68/10 66/66/10 67/67/10
f 71/71/16 68/68/16 69/69/16
f 58/58/14 176/176/14 57/57/14
f 15/15/1 19/19/1 20/20/1
f 17/17/2 20/20/2 19/19/2
f 19/19/12 22/22/12 18/18/12
f 18/18/12 21/21/12 17/17/12
